Coordinates
version=1
nRows=4
nColumns=107
inDegrees=yes

Units are S.I. units (second, meters, Newtons, ...)
If the header above contains a line with 'inDegrees', this indicates whether rotational values are in degrees (yes) or radians (no).

endheader
time	sternoclavicular_r2	sternoclavicular_r3	unrotscap_r3	unrotscap_r2	acromioclavicular_r2	acromioclavicular_r3	acromioclavicular_r1	unrothum_r1	unrothum_r3	unrothum_r2	elv_angle	shoulder_elv	shoulder1_r2	shoulder_rot	elbow_flexion	pro_sup	deviation	flexion	proximal_distal_r1	proximal_distal_r3	cmc_flexion	cmc_abduction	mp_flexion	ip_flexion	mcp2_flexion	mcp2_abduction	pm2_flexion	md2_flexion	mcp3_flexion	mcp3_abduction	pm3_flexion	md3_flexion	mcp4_flexion	mcp4_abduction	pm4_flexion	md4_flexion	mcp5_flexion	mcp5_abduction	pm5_flexion	md5_flexion	bicpt_tx	bicpt_ty	bicpt_tz	bicpt2_tx	bicpt2_ty	bicpt2_tz	ptpt_tx	ptpt_ty	ptpt_tz	FCUpt_tx	FCUpt_ty	FCUpt_tz	EDCpt_tx	EDCpt_ty	EDCpt_tz	APLpt_tx	APLpt_ty	APLpt_tz	FPLpt_tx	FPLpt_ty	FPLpt_tz	FPLpt2_tx	FPLpt2_ty	FPLpt2_tz	PEC1pt2_tx	PEC1pt2_ty	PEC1pt2_tz	PEC1pt3_tx	PEC1pt3_ty	PEC1pt3_tz	PEC2pt2_tx	PEC2pt2_ty	PEC2pt2_tz	PEC2pt3_tx	PEC2pt3_ty	PEC2pt3_tz	PEC3pt2_tx	PEC3pt2_ty	PEC3pt2_tz	PEC3pt3_tx	PEC3pt3_ty	PEC3pt3_tz	DELT2pt2a_tx	DELT2pt2a_ty	DELT2pt2a_tz	DELT2pt2_tx	DELT2pt2_ty	DELT2pt2_tz	LAT1pt2_tx	LAT1pt2_ty	LAT1pt2_tz	LAT1pt3_tx	LAT1pt3_ty	LAT1pt3_tz	LAT2pt2_tx	LAT2pt2_ty	LAT2pt2_tz	LAT2pt3_tx	LAT2pt3_ty	LAT2pt3_tz	LAT3pt2_tx	LAT3pt2_ty	LAT3pt2_tz	LAT3pt3_tx	LAT3pt3_ty	LAT3pt3_tz
      0.00000000	     -0.31405731	      0.13301985	     -0.13301985	      0.31405731	     -0.06359022	      0.51391376	      0.23100070	     -0.23100070	     -0.51391376	      0.06359022	    102.41146745	     74.35585983	     -1.78741730	    -39.36523890	     29.95643927	     83.11816007	      0.34658331	     -0.57994296	      0.37204413	     -0.28997148	     39.35516487	    -10.72614467	     13.85974695	      7.26052506	     93.37164607	     11.57333656	     84.35157419	     79.34878408	     90.13550959	      1.80142290	     83.35359419	     55.69541892	     82.53128611	    -13.02057790	     90.87037287	     49.46736994	     88.67582454	    -14.03958670	     84.79738158	      5.60536301	      0.00089087	     -0.03103347	     -0.00485304	      0.01452830	     -0.01833781	     -0.00156373	      0.00140851	     -0.06887119	     -0.00674561	      0.01240823	     -0.18233415	      0.00000755	     -0.00997416	      0.00342115	     -0.00066693	      0.00031170	      0.00012468	      0.00062341	      0.00039898	      0.00119695	      0.00067328	     -0.00001119	     -0.00012342	     -0.00014811	      0.00243722	      0.00855093	      0.00594847	     -0.00797261	      0.01924992	     -0.01825851	      0.00243722	      0.00855093	      0.00594847	      0.00053701	      0.01784542	     -0.00937711	      0.00387878	      0.00475506	      0.01579610	      0.00000000	      0.00739161	      0.00000000	     -0.00698119	     -0.03226221	     -0.00609246	      0.02244347	     -0.00108776	     -0.01254205	     -0.00086749	      0.01454071	     -0.00594847	      0.00239591	      0.02098489	     -0.01734972	     -0.00582455	      0.01259920	     -0.00532884	     -0.01214480	      0.02660290	     -0.02978368	     -0.02280248	      0.01408632	     -0.00714643	     -0.01511904	      0.03073378	     -0.03721927
      0.03333333	     -0.31411100	      0.13304259	     -0.13304259	      0.31411100	     -0.06360109	      0.51400162	      0.23104019	     -0.23104019	     -0.51400162	      0.06360109	    102.43965846	     74.36857134	     -1.78790932	    -39.35633656	     29.97709651	     83.11756709	      0.34659387	     -0.57997709	      0.37205163	     -0.28998855	     39.35658729	    -10.72704943	     13.86049563	      7.26070804	     93.36996117	     11.57379311	     84.35101596	     79.34876206	     90.13344109	      1.80125148	     83.35370873	     55.69557599	     82.53167739	    -13.02046016	     90.87013606	     49.46712298	     88.67662977	    -14.03967290	     84.79817951	      5.60540048	      0.00089155	     -0.03103583	     -0.00485342	      0.01452835	     -0.01834343	     -0.00156383	      0.00140855	     -0.06887116	     -0.00674557	      0.01240816	     -0.18233417	      0.00000753	     -0.00997408	      0.00342112	     -0.00066692	      0.00031170	      0.00012468	      0.00062340	      0.00039898	      0.00119693	      0.00067327	     -0.00001119	     -0.00012339	     -0.00014807	      0.00243764	      0.00855239	      0.00594949	     -0.00797397	      0.01925321	     -0.01826163	      0.00243764	      0.00855239	      0.00594949	      0.00053711	      0.01784847	     -0.00937871	      0.00387927	      0.00475588	      0.01579733	      0.00000000	      0.00739416	      0.00000000	     -0.00698239	     -0.03226772	     -0.00609457	      0.02244021	     -0.00108744	     -0.01253713	     -0.00086763	      0.01454320	     -0.00594949	      0.00239632	      0.02098848	     -0.01735268	     -0.00582554	      0.01260135	     -0.00532975	     -0.01214688	      0.02660744	     -0.02978877	     -0.02280638	      0.01408872	     -0.00714765	     -0.01512162	      0.03073904	     -0.03722563
      0.06666667	     -0.31404844	      0.13301610	     -0.13301610	      0.31404844	     -0.06358842	      0.51389925	      0.23099418	     -0.23099418	     -0.51389925	      0.06358842	    102.32501058	     74.35376005	     -1.78590834	    -39.04759503	     30.08257610	     82.82751570	      0.34592907	     -0.59074761	      0.37152625	     -0.29537380	     39.44660005	    -11.30713185	     14.32820776	      6.47700530	     92.32682519	     11.81510308	     83.80216604	     78.95400968	     88.91659923	      1.67245226	     83.95042663	     56.42316921	     82.32487373	    -12.99853733	     91.11108697	     46.83849934	     88.60624624	    -14.05250653	     85.49185518	      5.61417637	      0.00089504	     -0.03104792	     -0.00485537	      0.01455633	     -0.01837208	     -0.00161227	      0.00142998	     -0.06885731	     -0.00672220	      0.01237511	     -0.18234374	      0.00000021	     -0.00993928	      0.00340547	     -0.00065808	      0.00031216	      0.00012486	      0.00062432	      0.00039957	      0.00119870	      0.00067427	     -0.00001110	     -0.00012170	     -0.00014604	      0.00243715	      0.00855069	      0.00594831	     -0.00797238	      0.01924938	     -0.01825799	      0.00243715	      0.00855069	      0.00594831	      0.00053700	      0.01784492	     -0.00937684	      0.00387870	      0.00475493	      0.01579589	      0.00000000	      0.00739119	      0.00000000	     -0.00698100	     -0.03226130	     -0.00609211	      0.02234135	     -0.00107624	     -0.01235701	     -0.00086746	      0.01454030	     -0.00594831	      0.00239585	      0.02098430	     -0.01734923	     -0.00582438	      0.01259884	     -0.00532869	     -0.01214446	      0.02660215	     -0.02978284	     -0.02280184	      0.01408592	     -0.00714623	     -0.01511861	      0.03073291	     -0.03721822
      0.10000000	     -0.31580562	      0.13376036	     -0.13376036	      0.31580562	     -0.06394421	      0.51677465	      0.23228665	     -0.23228665	     -0.51677465	      0.06394421	    101.52226821	     74.76978788	     -1.77189784	    -36.18022950	     30.08585784	     78.52740143	      0.32904279	     -0.63543594	      0.35793832	     -0.31771797	     37.92521417	    -10.14988564	     15.74563651	      3.04319242	     92.13184209	     10.52007790	     80.46851118	     82.77779261	     88.73622258	      1.20345999	     81.81448211	     57.88125915	     81.82988594	    -12.09553392	     91.56465963	     45.49394060	     88.36575523	    -13.46007026	     86.11193793	      5.31661776	      0.00089515	     -0.03104830	     -0.00485543	      0.01494847	     -0.01837297	     -0.00231656	      0.00174771	     -0.06865186	     -0.00637580	      0.01188819	     -0.18248286	     -0.00010100	     -0.00942327	      0.00317656	     -0.00053241	      0.00031203	      0.00012481	      0.00062406	      0.00039940	      0.00119819	      0.00067398	     -0.00001231	     -0.00014907	     -0.00017888	      0.00245079	      0.00859853	      0.00598159	     -0.00801699	      0.01935708	     -0.01836015	      0.00245079	      0.00859853	      0.00598159	      0.00054000	      0.01794476	     -0.00942931	      0.00389469	      0.00478153	      0.01583600	      0.00000000	      0.00747468	      0.00000000	     -0.00702006	     -0.03244181	     -0.00616145	      0.02136235	     -0.00097306	     -0.01072592	     -0.00087231	      0.01462166	     -0.00598159	      0.00240925	      0.02110171	     -0.01744630	     -0.00585697	      0.01266934	     -0.00535851	     -0.01221241	      0.02675099	     -0.02994948	     -0.02292942	      0.01416473	     -0.00718621	     -0.01520320	      0.03090487	     -0.03742646
